Coordinates
version=1
nRows=13
nColumns=36
inDegrees=yes

Units are S.I. units (second, meters, Newtons, ...)
If the header above contains a line with 'inDegrees', this indicates whether rotational values are in degrees (yes) or radians (no).

endheader
time	pelvis_tilt	pelvis_list	pelvis_rotation	pelvis_tx	pelvis_ty	pelvis_tz	hip_flexion_r	hip_adduction_r	hip_rotation_r	knee_angle_r	knee_angle_r_beta	ankle_angle_r	subtalar_angle_r	mtp_angle_r	hip_flexion_l	hip_adduction_l	hip_rotation_l	knee_angle_l	knee_angle_l_beta	ankle_angle_l	subtalar_angle_l	mtp_angle_l	lumbar_extension	lumbar_bending	lumbar_rotation	arm_flex_r	arm_add_r	arm_rot_r	elbow_flex_r	pro_sup_r	arm_flex_l	arm_add_l	arm_rot_l	elbow_flex_l	pro_sup_l
      4.26666670	     -3.84547924	     -0.05258422	      0.01621559	      0.42894045	      0.94670270	     -0.02299248	      0.72848085	     -3.39480479	     -4.48342727	      0.79819302	      0.01393110	      2.74589581	    -13.44134741	     -7.49999987	      5.05814820	     -4.90933426	     -1.45971867	      9.66598746	      0.16870331	      4.08037578	     -9.83617673	     -7.49999987	     -4.93628287	      1.38532929	     -2.29348592	    360.95577310	    -14.46969202	    351.03133001	     49.35595384	     69.42301263	      6.90684229	    -18.13548530	      7.01393061	     48.77093119	     72.17846445
      4.27083330	     -3.88301988	     -0.03612583	     -0.00917518	      0.42874035	      0.94812329	     -0.02406041	      0.78700679	     -3.42570117	     -4.52463197	      0.81939911	      0.01430121	      2.69150438	    -13.44457980	     -7.49999987	      5.01216165	     -4.89814742	     -1.62926174	      9.50271140	      0.16585360	      4.09729207	     -9.59344731	     -7.49999987	     -4.86483399	      1.34936561	     -2.48934926	    361.17850159	    -14.52835608	    351.23817459	     49.07899617	     70.79433065	      6.55370961	    -17.98146650	      5.86209714	     49.11381255	     75.52784481
      4.27500000	     -3.90191286	     -0.01663269	     -0.00127239	      0.42890682	      0.94630534	     -0.02393536	      0.82355345	     -3.46809746	     -4.51548011	      0.83577401	      0.01458701	      2.57670050	    -13.67608750	     -7.49999987	      4.95454075	     -4.86183935	     -1.66518235	      9.36129782	      0.16338547	      4.02094574	     -9.74170874	     -7.49999987	     -4.78975359	      1.30727462	     -2.20750624	    360.85196721	    -14.60216254	    350.96287053	     49.39582657	     70.12331052	      6.93868891	    -18.19061463	      7.25012331	     48.97045267	     73.67325307
      4.27916670	     -3.97424713	      0.01205127	      0.00284829	      0.42892793	      0.94935406	     -0.02318810	      0.90565184	     -3.49619463	     -4.62038180	      0.83785801	      0.01462338	      2.48755716	    -13.68698865	     -7.49999987	      4.91342371	     -4.82249416	     -1.68837524	      9.14851682	      0.15967174	      3.95434183	     -9.75197025	     -7.49999987	     -4.69282115	      1.28713496	     -2.09812385	    360.73678893	    -14.71210073	    351.20501744	     49.37833294	     69.15488559	      7.01731857	    -18.31506082	      8.08692694	     49.00926168	     71.54466255
      4.28333330	     -4.00136271	      0.04494407	      0.05302138	      0.42931630	      0.94714470	     -0.02264535	      0.93712899	     -3.51512025	     -4.63185042	      0.82856691	      0.01446122	      2.33423177	    -13.91387127	     -7.49999987	      4.86134304	     -4.77681436	     -1.61980220	      8.99913290	      0.15706450	      3.89803822	     -9.84346329	     -7.49999987	     -4.61495420	      1.20595185	     -2.05197115	    360.54911037	    -14.74590316	    351.26933431	     49.44387846	     68.52762103	      7.03980752	    -18.48365492	      8.57465349	     49.17128695	     70.27694570
      4.28750000	     -4.03156536	      0.04010239	      0.01303206	      0.42803951	      0.94604519	     -0.02280691	      0.99966929	     -3.49137946	     -4.64320177	      0.85865586	      0.01498637	      2.30330815	    -13.98821245	     -7.49999987	      4.80228093	     -4.77873651	     -1.76403105	      8.79907797	      0.15357288	      3.97898629	     -9.62430139	     -7.49999987	     -4.66577988	      1.23563665	     -2.55031135	    361.08696452	    -14.86397411	    352.12514042	     49.13772354	     68.78897403	      6.20439186	    -18.35981042	      6.73301904	     50.20190995	     70.90693700
      4.29166670	     -4.12613743	      0.05593994	      0.04945267	      0.42825659	      0.94641492	     -0.02258194	      1.11234870	     -3.48536937	     -4.81580063	      0.86356149	      0.01507199	      2.34663088	    -13.88121416	     -7.49999987	      4.81276024	     -4.75916768	     -1.76409310	      8.61149303	      0.15029891	      4.01636896	     -9.57788908	     -7.49999987	     -4.48826444	      1.17826806	     -2.55155543	    360.96259566	    -14.92470245	    352.20744942	     49.10661791	     70.25874436	      6.09116523	    -18.42797655	      6.51575468	     50.33031727	     74.98820231
      4.29583330	     -4.18460620	      0.06425805	      0.07751798	      0.42827867	      0.94807803	     -0.02230880	      1.17713436	     -3.47806365	     -4.93295886	      0.84845624	      0.01480835	      2.35463420	    -13.86556729	     -7.49999987	      4.75291214	     -4.74979017	     -1.69413186	      8.34378229	      0.14562647	      3.89430240	     -9.64834958	     -7.49999987	     -4.37698298	      1.14381454	     -2.26875546	    360.59422203	    -15.05567961	    352.26617908	     49.36297151	     69.28214716	      6.42839297	    -18.74808219	      8.12145622	     50.28908653	     72.25696829
      4.30000000	     -4.23035385	      0.07745035	      0.05056768	      0.42788700	      0.94607477	     -0.02254044	      1.25138631	     -3.48581443	     -4.94391374	      0.82926052	      0.01447333	      2.38331856	    -13.92589897	     -7.49999987	      4.68339409	     -4.74448981	     -1.83139532	      8.09963484	      0.14136530	      3.99255520	     -9.47630319	     -7.49999987	     -4.30500982	      1.13308489	     -2.50761055	    360.79578602	    -15.10764227	    352.62959008	     49.22444408	     70.14124769	      5.87786716	    -18.70477853	      6.97235453	     50.93278943	     74.52020448
      4.30416670	     -4.26482094	      0.07716467	      0.03042515	      0.42719870	      0.94761920	     -0.02198751	      1.31532850	     -3.47285004	     -4.95383267	      0.81859827	      0.01428724	      2.38895731	    -14.00723045	     -7.49999987	      4.60422684	     -4.75401617	     -1.92244120	      7.84292344	      0.13688484	      3.98472787	     -9.29728753	     -7.49999987	     -4.23780813	      1.14025480	     -2.40457747	    360.70142100	    -15.18645764	    352.74950620	     49.28698863	     69.67033127	      5.88133528	    -18.84493297	      7.49061636	     51.09903768	     73.16177073
      4.30833330	     -4.31764848	      0.09238258	      0.00222901	      0.42697903	      0.94908146	     -0.02299458	      1.41255177	     -3.52125358	     -5.05563158	      0.78825202	      0.01375759	      2.41442739	    -13.91968983	     -7.49999987	      4.55679452	     -4.69082194	     -1.89836994	      7.52092213	      0.13126485	      3.95870542	     -9.05635761	     -7.49999987	     -4.15964052	      1.17000466	     -2.41152048	    360.76295656	    -15.38557117	    353.21518257	     49.19517484	     69.40784027	      5.67452479	    -18.93939333	      7.76128135	     51.39201810	     72.28136065
      4.31250000	     -4.31295725	      0.07740554	      0.05894686	      0.42594717	      0.94701876	     -0.02375092	      1.45028408	     -3.51722028	     -5.20369079	      0.78252812	      0.01365769	      2.44451072	    -13.80545885	     -7.49999987	      4.50911356	     -4.66817901	     -1.81989255	      7.32287313	      0.12780825	      3.92168255	     -9.10143501	     -7.49999987	     -4.13119467	      1.22044106	     -2.25971713	    360.61573736	    -15.52572095	    353.17610073	     49.24159804	     70.21551953	      5.79032835	    -18.94909698	      8.04696762	     51.50399176	     74.56339242
      4.31666670	     -4.35590615	      0.07202814	      0.07500711	      0.42622382	      0.94637276	     -0.02423077	      1.51072994	     -3.53030998	     -5.21295468	      0.76203990	      0.01330011	      2.36003443	    -13.86941383	     -7.49999987	      4.45664472	     -4.63747669	     -1.77303293	      7.08533125	      0.12366236	      3.93016437	     -8.85805621	     -7.49999987	     -4.02160445	      1.27256240	     -2.30183334	    360.53928428	    -15.71099306	    353.34984930	     49.31575430	     69.82628006	      5.54822513	    -19.02420788	      8.31828505	     51.82326890	     73.22719670
